<svg width="33" height="33" viewBox="0 0 33 33" fill="none" xmlns="http://www.w3.org/2000/svg">
<g id="Box">
<path id="Icon" d="M4.49625 9.57L16.5 16.5138L28.5037 9.57M16.5 30.36V16.5M28.875 22V11C28.8745 10.5178 28.7472 10.0441 28.5059 9.6266C28.2645 9.20909 27.9176 8.86238 27.5 8.62125L17.875 3.12125C17.4569 2.87989 16.9827 2.75282 16.5 2.75282C16.0173 2.75282 15.5431 2.87989 15.125 3.12125L5.5 8.62125C5.08236 8.86238 4.73547 9.20909 4.49413 9.6266C4.2528 10.0441 4.12549 10.5178 4.125 11V22C4.12549 22.4823 4.2528 22.9559 4.49413 23.3734C4.73547 23.7909 5.08236 24.1376 5.5 24.3788L15.125 29.8788C15.5431 30.1201 16.0173 30.2472 16.5 30.2472C16.9827 30.2472 17.4569 30.1201 17.875 29.8788L27.5 24.3788C27.9176 24.1376 28.2645 23.7909 28.5059 23.3734C28.7472 22.9559 28.8745 22.4823 28.875 22Z" stroke="#2C2C2C" stroke-width="4" stroke-linecap="round" stroke-linejoin="round"/>
</g>
</svg>
